<?xml version="1.0" encoding="UTF-8" standalone="no"?>
<!-- Created with Inkscape (http://www.inkscape.org/) -->

<svg
   width="20.085571mm"
   height="7.1831536mm"
   viewBox="0 0 20.085571 7.1831536"
   version="1.1"
   id="svg1"
   xml:space="preserve"
   xmlns="http://www.w3.org/2000/svg"
   xmlns:svg="http://www.w3.org/2000/svg"><defs
     id="defs1" /><g
     id="layer1"
     transform="translate(-94.73221,-144.83968)"><path
       style="fill:#000000"
       d="m 94.732213,151.84521 c 0,-0.0977 0.16541,-0.36557 0.36758,-0.59531 0.20217,-0.22974 0.78904,-1.5488 1.30415,-2.93125 0.51511,-1.38245 1.01728,-2.7219 1.11594,-2.97656 0.4974,-1.284 1.24623,-0.18855 2.893847,4.23333 0.39311,1.05503 0.8234,1.91823 0.9562,1.91823 0.13279,0 0.24145,0.11906 0.24145,0.26458 0,0.14552 -0.47625,0.26459 -1.05834,0.26459 -0.959727,0 -1.058327,-0.0632 -1.058327,-0.67886 0,-1.20522 -0.45088,-1.70239 -1.54389,-1.70239 -1.22531,0 -1.63111,0.3752 -1.63111,1.50812 0,0.79375 -0.0722,0.87313 -0.79375,0.87313 -0.43656,0 -0.79375,-0.0799 -0.79375,-0.17761 z m 4.23333,-2.81797 c 0,-0.36459 -0.88339,-2.56067 -1.03005,-2.56067 -0.10261,0 -0.34637,0.44648 -0.54169,0.99218 -0.19532,0.54571 -0.41057,1.14102 -0.47833,1.32292 -0.086,0.2309 0.2048,0.33073 0.96343,0.33073 0.59766,0 1.08664,-0.0383 1.08664,-0.0852 z m 3.704167,2.74661 c 0,-0.13693 0.11906,-0.32255 0.26458,-0.41249 0.1489,-0.092 0.26459,-1.36456 0.26459,-2.91042 0,-1.54586 -0.11569,-2.81839 -0.26459,-2.91042 -0.14552,-0.0899 -0.26458,-0.28816 -0.26458,-0.4405 0,-0.47618 4.14027,-0.16283 4.65544,0.35234 0.60401,0.60401 0.54781,1.70428 -0.13417,2.62671 l -0.57197,0.77362 0.68222,1.16412 c 0.37522,0.64026 0.86339,1.23363 1.08483,1.31861 0.5248,0.20138 0.21864,0.6874 -0.43302,0.6874 -0.32323,0 -0.87028,-0.55007 -1.51302,-1.52136 -0.5537,-0.83674 -1.18205,-1.52135 -1.39633,-1.52135 -0.49072,0 -0.67339,1.73609 -0.26331,2.50234 0.27144,0.50718 0.2155,0.54037 -0.91074,0.54037 -0.65996,0 -1.19993,-0.11204 -1.19993,-0.24897 z m 3.5507,-3.96097 c 0.67508,-0.74595 0.45651,-1.93835 -0.41089,-2.24153 -1.1379,-0.39772 -1.55231,-0.0668 -1.55231,1.23969 0,0.63516 0.0794,1.23421 0.17639,1.33122 0.3488,0.3488 1.33811,0.16643 1.78681,-0.32938 z m 3.59305,3.99827 c 0,-0.11642 0.12579,-0.33745 0.27952,-0.49119 0.40628,-0.40627 0.44134,-5.2967 0.0408,-5.69718 -0.64266,-0.64267 -0.27314,-0.7621 2.12702,-0.6875 2.34527,0.0729 2.45109,0.10215 2.5358,0.70076 0.0613,0.43314 -0.009,0.56441 -0.22965,0.42812 -0.17492,-0.10811 -0.72401,-0.28812 -1.22019,-0.40003 -1.04842,-0.23646 -1.68127,0.20989 -1.68127,1.18581 0,0.91608 0.65509,1.35224 1.47197,0.98005 0.53864,-0.24542 0.69091,-0.22796 0.81422,0.0934 0.28739,0.74893 -0.099,1.1899 -0.90188,1.02932 -1.29212,-0.25843 -1.68299,0.7839 -0.97765,2.60709 0.1547,0.39989 0.0129,0.46302 -1.03981,0.46302 -0.67041,0 -1.21893,-0.0953 -1.21893,-0.21166 z"
       id="path1" /></g></svg>
